<svg xmlns="http://www.w3.org/2000/svg" xmlns:xlink="http://www.w3.org/1999/xlink" version="1.1" id="Layer_1" x="0px" y="0px" width="94.11px" height="33.65px" viewBox="0 0 94.11 33.65" enable-background="new 0 0 94.11 33.65" xml:space="preserve">
  <g>
    <path fill="#009FDF" d="M27.019,4.403H4.805L6.408,0h22.214L27.019,4.403z M26.217,6.605H4.003L2.4,11.008h22.213L26.217,6.605z    M23.816,13.21H1.603L0,17.613h22.213L23.816,13.21z"></path>
    <path fill="#0A2973" d="M79.943,28.591h3.977c1.508,0,2.422-0.366,3.063-1.188c0.32-0.411,0.777-1.143,0.777-2.514   c0-1.372-0.457-2.332-1.371-3.017c-0.548-0.411-1.28-0.64-2.514-0.64h-3.931V28.591z M74.687,33.024V6.605h17.187l-1.508,4.434   H79.943v5.851h4.251c3.428,0,5.21,0.823,6.445,1.875c0.96,0.823,2.605,2.651,2.605,6.262c0,3.565-1.691,5.53-3.108,6.536   c-1.646,1.143-3.382,1.462-6.902,1.462H74.687z M59.465,33.024V11.039h-7.633V6.605h21.209l-1.508,4.434h-6.765v21.986H59.465z    M38.302,17.164h2.971c0.914,0,1.371,0,1.828-0.137c1.234-0.366,2.011-1.462,2.011-2.971c0-1.783-0.823-2.56-2.011-2.926   c-0.503-0.137-1.005-0.183-2.011-0.183h-2.788V17.164z M38.348,21.734v6.948h3.657c1.097,0,2.103-0.091,2.834-0.777   c0.731-0.686,1.051-1.554,1.051-2.697c0-0.869-0.229-1.691-0.686-2.286c-0.777-0.96-1.737-1.188-3.382-1.188H38.348z    M46.804,18.946v0.091c1.005,0.366,1.965,1.006,2.468,1.417c1.554,1.28,2.24,2.971,2.24,5.165c0,3.611-1.92,6.217-5.074,7.04   c-0.96,0.274-1.965,0.365-3.84,0.365h-9.553V6.605h8.457c1.737,0,2.925,0.091,3.977,0.366c3.063,0.823,5.074,2.925,5.074,6.262   c0,1.783-0.64,3.292-1.691,4.297C48.404,17.986,47.764,18.535,46.804,18.946z"></path>
  </g>
</svg>